PathFileType	4	(X/Y/Z)	SUBJ51_3_walk_RCNL2025.trc
DataRate	CameraRate	NumFrames	NumMarkers	Units	OrigDataRate	OrigDataStartFrame	OrigNumFrames
100	100	4	25	mm	100	1	275
Frame#	Time	R_Shoulder			L_Shoulder			C7			J_Notch			R_Elbow			L_Elbow			R_Wrist			L_Wrist			R_Asis			L_Asis			Sacral			Thoracic			Sternum			R_Thigh_Lateral			R_Knee_Lateral			R_Shank_Lateral			R_Ankle_Lateral			R_Heel			R_Toe			L_Thigh_Lateral			L_Knee_Lateral			L_Shank_Lateral			L_Ankle_Lateral			L_Heel			L_Toe		
		X1	Y1	Z1	X2	Y2	Z2	X3	Y3	Z3	X4	Y4	Z4	X5	Y5	Z5	X6	Y6	Z6	X7	Y7	Z7	X8	Y8	Z8	X9	Y9	Z9	X10	Y10	Z10	X11	Y11	Z11	X12	Y12	Z12	X13	Y13	Z13	X14	Y14	Z14	X15	Y15	Z15	X16	Y16	Z16	X17	Y17	Z17	X18	Y18	Z18	X19	Y19	Z19	X20	Y20	Z20	X21	Y21	Z21	X22	Y22	Z22	X23	Y23	Z23	X24	Y24	Z24	X25	Y25	Z25
1	0.00000000	-2571.604004	1431.192505	467.341919	-2541.360107	1469.464722	14.719434	-2637.426025	1571.263184	229.641983	-2497.892334	1450.215576	236.184891	-2710.546875	1146.270386	535.405823	-2552.560547	1168.204712	-112.661438	-2719.911865	877.410645	549.729980	-2383.206909	970.030060	-103.224220	-2494.724854	1025.900146	358.400208	-2501.558105	983.426514	120.554665	-2718.709717	1029.000488	240.418045	-2742.589600	1351.852173	217.962738	-2445.995850	1222.400757	226.171951	-2438.235352	636.039673	428.603485	-2419.192627	515.517334	373.977173	-2419.279297	295.111725	429.027557	-2439.992188	65.452301	312.400513	-2491.375244	59.914616	253.447418	-2281.424805	38.473866	287.658447	-2589.400146	596.856506	-1.400677	-2608.547607	488.551514	41.643661	-2757.994141	386.783203	-1.505183	-2967.495117	230.640381	100.936691	-2970.154053	278.494507	161.930161	-2960.299316	70.733604	132.187744
2	0.01000000	-2555.270264	1433.241089	467.712677	-2527.514160	1471.140137	15.090651	-2622.391602	1573.787598	230.487762	-2483.105225	1452.440308	236.492401	-2689.837402	1146.906372	537.572388	-2542.630371	1168.371460	-110.203293	-2693.950684	877.942932	551.945312	-2378.885132	965.080139	-101.409344	-2480.013184	1027.372559	360.419830	-2486.286377	986.287781	121.937241	-2703.798096	1031.549316	241.353729	-2727.895752	1354.384521	219.324448	-2431.333252	1224.639893	226.627609	-2428.656738	635.927124	428.586578	-2411.760254	515.147583	373.831604	-2416.715088	294.957306	428.536224	-2439.585205	65.551598	311.801239	-2491.080811	60.182297	252.977386	-2281.116211	38.221779	287.478943	-2564.498779	599.510742	-1.290775	-2579.368164	491.300415	41.380898	-2727.652588	389.544250	-1.284757	-2938.027588	235.081268	102.470001	-2941.266113	282.174194	164.011627	-2928.534180	74.908325	130.968750
3	0.02000000	-2539.227295	1435.565186	468.019287	-2514.079102	1472.859131	15.282564	-2607.574219	1576.433716	231.236343	-2468.554932	1454.818237	236.741455	-2669.046143	1147.808716	539.711487	-2533.046875	1168.619873	-107.760124	-2631.294434	877.532257	538.007446	-2375.174561	960.289246	-99.597946	-2465.564941	1028.677490	362.376862	-2471.347168	989.542236	123.229317	-2689.120117	1034.312866	242.159317	-2713.406738	1356.993164	220.745239	-2416.869629	1227.078613	227.051193	-2419.713135	635.908813	428.737274	-2405.153564	514.787415	373.923401	-2414.669189	294.847168	428.383545	-2439.329834	65.631454	311.379242	-2490.875000	60.405540	252.666946	-2280.930176	38.060520	287.400421	-2539.687500	602.682556	-1.198105	-2550.628418	494.575287	41.273766	-2697.498535	392.208771	-0.666799	-2907.722168	237.793335	104.211357	-2912.246094	284.006195	166.261246	-2893.798340	77.790833	129.876480
4	0.03000000	-2523.435303	1438.171265	468.274078	-2501.008301	1474.663086	15.317975	-2592.940918	1579.167847	231.903427	-2454.197266	1457.328247	236.944046	-2648.173828	1149.003174	541.814026	-2523.749512	1169.001587	-105.306808	-2610.345703	879.033752	539.539398	-2372.050659	955.723572	-97.778564	-2451.399414	1029.956421	364.204773	-2456.713623	993.121643	124.457451	-2674.639648	1037.216919	242.801331	-2699.079102	1359.639648	222.200073	-2402.572266	1229.688599	227.448853	-2411.415771	635.965637	429.067932	-2399.310303	514.458862	374.259399	-2412.881348	294.750214	428.550140	-2439.175049	65.696266	311.115326	-2490.740479	60.596485	252.518234	-2280.837891	37.964268	287.403168	-2514.984619	606.294250	-1.140255	-2522.419922	498.266907	41.317074	-2667.684814	394.810120	0.272139	-2876.612549	238.706604	106.065170	-2882.891357	283.979797	168.562515	-2856.649170	79.296783	128.965057
